<svg xmlns="http://www.w3.org/2000/svg" width="500" height="500" style="width:100%;height:100%;transform:translate3d(0,0,0);content-visibility:visible" viewBox="0 0 500 500"><defs><clipPath id="b"><path d="M0 0h500v500H0z"/></clipPath><mask id="c" mask-type="alpha"><use xmlns:ns1="http://www.w3.org/1999/xlink" ns1:href="#a"/></mask><g id="a" style="display:block"><path fill="#121331" d="M248.134 360.849c78.33 0 141.93 38.312 141.93 85.5 0 47.187-63.6 85.5-141.93 85.5-78.332 0-141.93-38.313-141.93-85.5 0-47.188 63.598-85.5 141.93-85.5z"/><path fill-opacity="0" stroke="#EB0050" stroke-width="0" d="M0-19c10.486 0 19 8.514 19 19S10.486 19 0 19s-19-8.514-19-19 8.514-19 19-19z" transform="matrix(7.47 0 0 4.5 248.134 446.349)"/></g></defs><g clip-path="url(#b)"><path fill="none" stroke="#121331" stroke-linecap="round" stroke-linejoin="round" stroke-width="2.8" d="M40.75 0c0 22.69-18.393 41.083-41.083 41.083-22.69 0-41.084-18.393-41.084-41.083 0-22.69 18.394-41.083 41.084-41.083C22.357-41.083 40.75-22.69 40.75 0z" style="display:block" transform="matrix(4.5 0 0 4.5 250.751 251.125)"/><path fill="none" stroke="#121331" stroke-linecap="round" stroke-linejoin="round" stroke-width="12.6" d="m345.44 216.812-28.687 10.125 24.75 13.5m-185.441-23.625 28.688 10.125-24.75 13.5" style="display:block"/><g style="display:block"><path fill="#121331" d="M318.064 305.755h-135s6.174 68.49 69.97 68.49c63.797 0 65.03-68.49 65.03-68.49z"/><path fill="none" stroke="#121331" stroke-linecap="round" stroke-linejoin="round" stroke-width="12.6" d="M318.064 305.755h-135s6.174 68.49 69.97 68.49c63.797 0 65.03-68.49 65.03-68.49z"/></g><g mask="url(#c)" style="display:block"><path fill="#08A88A" d="M318.064 305.755h-135s6.174 68.49 69.97 68.49c63.797 0 65.03-68.49 65.03-68.49z"/><path fill="none" stroke="#121331" stroke-linecap="round" stroke-linejoin="round" stroke-width="12.915" d="M318.064 305.755h-135s6.174 68.49 69.97 68.49c63.797 0 65.03-68.49 65.03-68.49z"/></g><g class="com" style="display:none"><path/><path/><path/><path/><path/><path/><path/><path/><path/><path/><path/><path/></g></g></svg>